<?xml version="1.0" encoding="UTF-8"?>
<svg id="Layer_1" data-name="Layer 1" xmlns="http://www.w3.org/2000/svg" viewBox="0 0 659.71 649.41">
  <defs>
    <style>
      .cls-1 {
        fill: #d67655;
      }

      .cls-2 {
        fill: #fbefeb;
      }
    </style>
  </defs>
  <path class="cls-1" d="M0,507.36V142.05C0,63.6,63.6,0,142.05,0h375.62c78.45,0,142.05,63.6,142.05,142.05v365.31c0,78.45-63.6,142.05-142.05,142.05H142.05C63.6,649.41,0,585.81,0,507.36Z"/>
  <g id="_1CPJ3E.tif" data-name="1CPJ3E.tif">
    <path class="cls-2" d="M463.25,501.78c5.91,9.32,5.62,21.13,2.62,30.56-5.34,5.58-22.41,9.82-28.04,2.78-32.04-40.14-56.75-82.85-84.32-127.34l-15.31,153.72c-.96,9.62-15.91,16.99-24.76,13.03-9.22-4.13-17.46-16.8-15.42-26.94,10.43-51.86,21.82-100.85,28.78-154.36l-78.46,104.9-33.83,36.48c-5.79,6.25-14.49,4.44-20.34.74-5.44-3.44-6.95-13.43-1.74-20.23l103.65-135.28-128.16,80.61c-7.33,4.61-17.3,5.74-26.75,4.09-11.24-1.96-15.09-20.85-5.64-27.36l43.37-29.87,101.57-60.21-178.77-8.73c-11.39-.56-24.72-10.3-22.65-22.06,1.88-10.72,14.89-9.2,22.56-8.63l177.65,13.29c-20.04-20.16-43.42-32.21-65.92-47.64l-76.18-52.26c-12.37-8.49-21.82-17.66-19.85-35.61.69-6.3,7.64-13.99,12.69-16.09,5.53-2.3,18.02-2.25,23.62,1.77,40.66,29.16,76.55,60.96,121.83,89.71-21.26-46.14-46.97-85.76-71.35-128.15-13.26-23.05-13.57-43.79,8.14-56.53,7.86-4.61,30.04-2.69,34.69,7.19,22.51,47.79,42.16,94.49,67.99,140.33,7.64,13.56,10.69,27.06,17.99,43.1l16.65-159.08c1.24-11.85,12.76-25.29,23.63-24.87,10.66.41,21.82,12.98,20.31,22.2l-24.46,148.79c34.22-39.27,59.14-77.01,92.79-111.13,10.29-10.44,24.54-19.01,38.64-9.43,15,14.24,16.93,31.19,5.05,46.97l-65.63,87.17c-6.75,8.96-11.94,18.03-15.8,30.15l122.8-24.27c10.58-2.09,24.36-1.57,30.93,9.19,3.18,5.21-1.56,21.07-8.25,22.65l-154.93,36.44c23.93,7.64,46.25,4.15,69.3,5.92l69.64,5.33c10.42.8,19.33,12.23,24.94,19.82,4.72,6.39,1.93,13.84-4.56,16.66-7.55,3.43-13.82,8.39-21.48,9.84l-146.32-33.65,116.58,108.91c4.08,3.81,3.91,9.07,4.82,12.63s-5.25,14.04-9.86,11.36c-41.09-23.88-71.74-57.86-111.49-86.65l57.05,90.03Z"/>
  </g>
</svg>