<?xml version="1.0" encoding="UTF-8"?>
<svg id="Layer_1" data-name="Layer 1" xmlns="http://www.w3.org/2000/svg" viewBox="0 0 188.25 188.18">
  <defs>
    <style>
      .cls-1 {
        fill: #010101;
      }

      .cls-2 {
        fill: #e1e1e1;
      }
    </style>
  </defs>
  <g id="_8NAOp8" data-name="8NAOp8">
    <g>
      <path class="cls-1" d="M188.18,162.6c0,14.6-10.98,25.56-25.19,25.56H25.14C11.06,188.18-.01,177.13,0,163.02L.12,24.15C.13,10.42,11.66,0,25.12,0h137.86c14.83,0,25.27,11.67,25.27,26.16l-.07,136.44ZM111.57,121.67c-1.08-37.52-32.95-68.33-67.49-83.5,15.52,31.38,20.33,57.57.03,89.18,21.74-17.18,41.27-15.1,67.45-5.68ZM119.28,117.34c6.92-1.31,11.68-.04,18.96,1.16-7.28-29.16-29.19-53.9-57.63-64.67,4.89,6.99,11.39,9.74,16.13,15.67,11.13,13.93,18.5,29.74,22.53,47.83ZM95.93,144.42c4.92-4.66,11.92-4.09,16.6.22,6.57,6.05,15.4,5.84,22.1-.01,13.69-11.95,21.51,10.03,31.23,3.4-5.06-1.52-8.95-2.24-12.26-5.34-5.95-5.57-14.05-5.31-20.16-.24-2.66,2.21-5.87,4.53-9.78,3.64l26.94-19.61-115.41,2.87,15.37,16.47c-5.81,2.2-10.82.24-15.08-3.1-5.27-4.13-11.41-5.54-12.2-3.01-.63,1.99,3.85-.33,11.48,5.54,7.04,5.41,15.38,5.17,21.71-.74,4.71-4.39,11.62-4.37,16.22-.08,6.58,6.14,16.42,6.45,23.24,0Z"/>
      <g>
        <path class="cls-2" d="M95.93,144.42c-6.82,6.46-16.66,6.15-23.24,0-4.6-4.3-11.51-4.32-16.22.08-6.33,5.91-14.68,6.15-21.71.74-7.63-5.87-12.11-3.55-11.48-5.54.79-2.52,6.93-1.12,12.2,3.01,4.26,3.34,9.27,5.3,15.08,3.1l-15.37-16.47,115.41-2.87-26.94,19.61c3.91.89,7.12-1.43,9.78-3.64,6.11-5.07,14.21-5.33,20.16.24,3.31,3.1,7.2,3.82,12.26,5.34-9.72,6.63-17.54-15.35-31.23-3.4-6.7,5.85-15.53,6.07-22.1.01-4.68-4.32-11.68-4.89-16.6-.22ZM94.21,142.7c5.77-5.46,13.72-5.15,19.58-.21,1.13.95,3.57,3.15,5.32,3.13l24.6-16.63-103.3,2.54,12.68,12.79c5.95-6.33,14.65-7.56,20.73-2.02s14.16,6.3,20.39.41Z"/>
        <path class="cls-2" d="M111.57,121.67c-26.19-9.42-45.72-11.5-67.45,5.68,20.3-31.61,15.48-57.81-.03-89.18,34.54,15.18,66.41,45.98,67.49,83.5ZM108.77,116.25c-1.77-15.51-8.84-29.46-19.09-41.84-11.24-12.4-24.07-23.42-39.74-30.41,5.43,13.64,9.45,24.93,9.82,38.03.74,12.8-1.63,24.58-7.82,36.56,17.89-9.56,37.28-7.15,55.39-1.03l1.43-1.32ZM108.69,116.92l-.88.84c.68.92,1.77-.13.88-.84Z"/>
        <path class="cls-2" d="M119.28,117.34c-4.03-18.09-11.4-33.9-22.53-47.83-4.74-5.94-11.24-8.69-16.13-15.67,28.43,10.77,50.34,35.51,57.63,64.67-7.28-1.2-12.05-2.47-18.96-1.16ZM96.58,65.09l-.5.5.5.5.5-.5-.5-.5ZM98.76,66.07c-1.35-.52-1.96,1.25-.54,1.62l.54-1.62ZM99.71,66.81l-1.02,1.46c11.11,13.81,18.1,29.49,22.63,46.41,5-.61,8.54-.05,13.48.5-6.01-20.14-18.69-36.55-35.09-48.37Z"/>
        <path class="cls-1" d="M94.21,142.7c-6.22,5.89-14.48,4.98-20.39-.41s-14.78-4.3-20.73,2.02l-12.68-12.79,103.3-2.54-24.6,16.63c-1.75.02-4.19-2.18-5.32-3.13-5.86-4.94-13.81-5.25-19.58.21Z"/>
        <path class="cls-1" d="M107.34,117.56c-18.11-6.12-37.51-8.54-55.39,1.03,6.19-11.98,8.56-23.76,7.82-36.56-.37-13.09-4.39-24.39-9.82-38.03,15.67,6.99,28.49,18.01,39.74,30.41,10.25,12.38,17.31,26.32,19.09,41.84l-.08.67c.89.72-.19,1.77-.88.84-.11-.08-.29-.16-.48-.2Z"/>
        <path class="cls-1" d="M98.23,67.69c-1.42-.38-.82-2.15.54-1.62l.95.75c16.41,11.82,29.08,28.23,35.09,48.37-4.94-.54-8.48-1.11-13.48-.5-4.52-16.92-11.52-32.6-22.63-46.41l-.47-.58Z"/>
        <rect class="cls-1" x="96.23" y="65.23" width=".71" height=".71" transform="translate(-18.09 87.5) rotate(-45)"/>
      </g>
    </g>
  </g>
</svg>